PathFileType  4	(X/Y/Z)
DataRate	CameraRate	NumFrames	NumMarkers	Units	OrigDataRate	OrigDataStartFrame	OrigNumFrames
  200.0 	  200.0 	    11 	     40 	mm 	  200.0 	      194 	    515
Frame#	Time	R.Shoulder			R.Clavicle			R.Bicep			R.Elbow			R.Forearm			R.Wrist			L.Shoulder			L.Clavicle			L.Scapula			L.Bicep			L.Elbow			L.Forearm			L.Wrist			R.ASIS			R.PSIS			S2			L.PSIS			L.ASIS			R.TH1			R.TH2			R.TH3			R.Knee			R.SH1			R.SH2			R.SH3			R.SH4			R.Ankle			R.Heel			R.MT5			L.TH1			L.TH2			L.TH3			L.TH4			L.Knee			L.SH1			L.SH2			L.SH3			L.Ankle			L.Heel			L.MT5			
		X1	Y1	Z1	X2	Y2	Z2	X3	Y3	Z3	X4	Y4	Z4	X5	Y5	Z5	X6	Y6	Z6	X7	Y7	Z7	X8	Y8	Z8	X9	Y9	Z9	X10	Y10	Z10	X11	Y11	Z11	X12	Y12	Z12	X13	Y13	Z13	X14	Y14	Z14	X15	Y15	Z15	X16	Y16	Z16	X17	Y17	Z17	X18	Y18	Z18	X19	Y19	Z19	X20	Y20	Z20	X21	Y21	Z21	X22	Y22	Z22	X23	Y23	Z23	X24	Y24	Z24	X25	Y25	Z25	X26	Y26	Z26	X27	Y27	Z27	X28	Y28	Z28	X29	Y29	Z29	X30	Y30	Z30	X31	Y31	Z31	X32	Y32	Z32	X33	Y33	Z33	X34	Y34	Z34	X35	Y35	Z35	X36	Y36	Z36	X37	Y37	Z37	X38	Y38	Z38	X39	Y39	Z39	X40	Y40	Z40	

194	0.96500	-374.992	1332.445	-62.369	-326.858	1315.783	-213.574	-336.171	1108.275	-53.243	-422.256	1028.289	36.087	-313.434	948.788	18.379	-304.552	844.790	77.778	-375.884	1312.385	-445.810	-321.525	1309.773	-272.220	-504.241	1309.617	-336.580	-355.662	1132.438	-452.680	-455.059	1004.251	-505.725	-394.608	906.014	-500.719	-430.594	796.308	-537.534	-309.457	876.331	-94.681	-545.399	925.153	-186.574	-548.367	922.080	-239.242	-535.466	938.637	-293.061	-297.015	886.931	-354.792	-342.362	659.469	-21.480	-486.847	636.676	-71.140	-470.313	563.438	-77.421	-413.130	453.577	-41.705	-473.110	351.419	-28.067	-526.883	301.763	-49.293	-518.689	433.018	-101.070	-577.306	385.417	-113.742	-686.579	213.310	-104.947	-738.815	244.707	-176.031	-679.605	88.115	-64.797	-270.201	649.509	-392.243	-243.545	576.216	-361.367	-407.448	601.582	-403.813	-388.561	527.972	-381.851	-322.888	463.069	-377.051	-280.867	370.431	-379.809	-386.903	376.900	-371.212	-398.891	300.099	-374.907	-337.919	72.534	-356.879	-422.050	40.792	-322.965	-235.784	23.607	-370.526
195	0.97000	-369.103	1333.660	-62.458	-320.568	1317.059	-213.696	-330.748	1109.318	-53.418	-417.426	1029.524	35.487	-309.050	949.304	18.600	-301.454	845.205	78.028	-368.539	1313.818	-445.902	-315.091	1311.070	-272.318	-497.613	1311.144	-337.354	-346.911	1134.148	-452.246	-443.505	1004.928	-506.906	-381.613	907.805	-500.295	-414.454	797.254	-537.206	-303.495	877.870	-94.726	-539.346	926.700	-187.421	-542.276	923.717	-240.001	-529.322	940.200	-293.832	-290.925	887.639	-355.005	-333.713	662.069	-21.495	-477.785	637.092	-71.534	-460.086	564.102	-77.858	-401.188	455.133	-42.225	-459.728	352.479	-28.864	-512.950	302.345	-50.285	-506.167	433.727	-101.593	-564.244	385.557	-114.467	-671.596	211.928	-106.372	-724.738	241.904	-177.256	-661.413	87.319	-66.271	-266.795	648.933	-393.136	-240.763	575.393	-362.330	-404.623	602.529	-403.499	-386.530	528.766	-381.726	-321.294	463.094	-377.325	-279.642	370.241	-380.134	-385.769	377.231	-371.448	-398.058	300.414	-374.975	-337.860	72.558	-356.855	-422.045	40.849	-322.991	-235.794	23.551	-370.549
196	0.97500	-363.225	1334.875	-62.520	-314.299	1318.327	-213.790	-325.333	1110.371	-53.577	-412.595	1030.775	34.921	-304.674	949.841	18.848	-298.372	845.658	78.325	-361.224	1315.255	-445.955	-308.676	1312.357	-272.387	-491.003	1312.672	-338.097	-338.238	1135.900	-451.781	-431.960	1005.694	-508.073	-368.629	909.749	-499.819	-398.279	798.431	-536.817	-297.529	879.441	-94.767	-533.301	928.298	-188.207	-536.207	925.391	-240.703	-523.207	941.775	-294.549	-284.855	888.375	-355.197	-325.111	664.717	-21.532	-468.762	637.594	-71.893	-449.921	564.868	-78.281	-389.306	456.722	-42.789	-446.354	353.457	-29.703	-498.950	302.775	-51.303	-493.821	434.301	-102.094	-551.279	385.481	-115.165	-656.431	210.168	-107.785	-710.509	238.590	-178.462	-642.829	86.227	-67.668	-263.432	648.380	-393.998	-238.029	574.599	-363.265	-401.832	603.512	-403.160	-384.527	529.598	-381.569	-319.739	463.167	-377.591	-278.448	370.106	-380.441	-384.668	377.594	-371.678	-397.248	300.769	-375.048	-337.785	72.590	-356.842	-422.033	40.920	-323.019	-235.797	23.478	-370.570
197	0.98000	-357.360	1336.089	-62.557	-308.048	1319.583	-213.860	-319.922	1111.437	-53.715	-407.766	1032.038	34.384	-300.307	950.399	19.123	-295.305	846.149	78.665	-353.939	1316.696	-445.970	-302.278	1313.631	-272.428	-484.409	1314.197	-338.809	-329.642	1137.692	-451.293	-420.432	1006.545	-509.222	-355.664	911.843	-499.291	-382.082	799.840	-536.367	-291.557	881.043	-94.815	-527.260	929.937	-188.927	-530.158	927.090	-241.342	-517.118	943.350	-295.210	-278.801	889.140	-355.374	-316.553	667.405	-21.595	-459.778	638.173	-72.209	-439.820	565.728	-78.683	-377.485	458.336	-43.391	-432.996	354.351	-30.580	-484.891	303.053	-52.342	-481.648	434.733	-102.582	-538.407	385.184	-115.843	-641.084	208.046	-109.180	-696.107	234.793	-179.650	-623.897	84.858	-68.976	-260.101	647.851	-394.827	-235.334	573.835	-364.166	-399.062	604.531	-402.803	-382.540	530.469	-381.387	-318.216	463.289	-377.848	-277.282	370.026	-380.734	-383.597	377.988	-371.897	-396.458	301.165	-375.121	-337.694	72.630	-356.841	-422.013	41.005	-323.048	-235.792	23.392	-370.589
198	0.98500	-351.506	1337.302	-62.573	-301.816	1320.828	-213.905	-314.513	1112.516	-53.831	-402.937	1033.311	33.873	-295.946	950.976	19.422	-292.249	846.678	79.045	-346.685	1318.140	-445.950	-295.896	1314.890	-272.441	-477.830	1315.711	-339.491	-321.124	1139.520	-450.786	-408.926	1007.479	-510.350	-342.728	914.086	-498.714	-365.878	801.484	-535.856	-285.577	882.674	-94.878	-521.223	931.605	-189.576	-524.126	928.799	-241.916	-511.055	944.915	-295.810	-272.760	889.939	-355.544	-308.035	670.121	-21.683	-450.834	638.820	-72.477	-429.787	566.671	-79.054	-365.728	459.968	-44.028	-419.660	355.162	-31.491	-470.780	303.184	-53.399	-469.643	435.017	-103.066	-525.623	384.664	-116.509	-625.557	205.580	-110.552	-681.507	230.542	-180.823	-604.658	83.237	-70.185	-256.792	647.346	-395.620	-232.669	573.101	-365.031	-396.304	605.585	-402.433	-380.558	531.378	-381.184	-316.719	463.456	-378.096	-276.145	369.997	-381.016	-382.553	378.413	-372.098	-395.685	301.601	-375.190	-337.586	72.681	-356.850	-421.985	41.102	-323.078	-235.778	23.297	-370.607
199	0.99000	-345.665	1338.512	-62.569	-295.600	1322.059	-213.928	-309.101	1113.608	-53.921	-398.111	1034.590	33.386	-291.589	951.571	19.744	-289.199	847.242	79.464	-339.463	1319.584	-445.897	-289.528	1316.133	-272.427	-471.265	1317.210	-340.142	-312.680	1141.380	-450.267	-397.447	1008.492	-511.454	-329.827	916.474	-498.087	-349.682	803.361	-535.284	-279.589	884.330	-94.965	-515.185	933.288	-190.151	-518.108	930.505	-242.421	-505.015	946.457	-296.348	-266.728	890.771	-355.710	-299.553	672.855	-21.796	-441.931	639.525	-72.691	-419.824	567.687	-79.388	-354.036	461.610	-44.695	-406.355	355.890	-32.432	-456.624	303.171	-54.467	-457.799	435.147	-103.560	-512.919	383.919	-117.174	-609.849	202.789	-111.898	-666.688	225.868	-181.980	-585.150	81.386	-71.285	-253.498	646.863	-396.376	-230.028	572.395	-365.857	-393.549	606.670	-402.056	-378.571	532.323	-380.965	-315.245	463.666	-378.334	-275.035	370.018	-381.289	-381.534	378.866	-372.276	-394.929	302.075	-375.248	-337.463	72.743	-356.869	-421.949	41.212	-323.106	-235.757	23.196	-370.625
200	0.99500	-339.837	1339.715	-62.549	-289.399	1323.274	-213.929	-303.686	1114.712	-53.981	-393.287	1035.873	32.922	-287.236	952.181	20.087	-286.151	847.841	79.917	-332.274	1321.026	-445.813	-283.173	1317.357	-272.387	-464.710	1318.686	-340.765	-304.307	1143.267	-449.742	-386.000	1009.580	-512.531	-316.969	919.002	-497.416	-333.507	805.471	-534.654	-273.594	886.008	-95.081	-509.147	934.972	-190.650	-512.102	932.194	-242.858	-498.996	947.967	-296.820	-260.703	891.635	-355.880	-291.107	675.596	-21.935	-433.069	640.279	-72.846	-409.934	568.764	-79.679	-342.414	463.254	-45.390	-393.088	356.538	-33.398	-442.430	303.021	-55.541	-446.108	435.116	-104.073	-500.289	382.950	-117.845	-593.956	199.693	-113.210	-651.627	220.802	-183.121	-565.404	79.332	-72.266	-250.211	646.401	-397.093	-227.404	571.715	-366.643	-390.789	607.782	-401.676	-376.571	533.301	-380.734	-313.791	463.914	-378.560	-273.953	370.085	-381.555	-380.538	379.346	-372.427	-394.188	302.586	-375.290	-337.325	72.816	-356.896	-421.905	41.333	-323.133	-235.729	23.091	-370.641
201	1.00000	-334.021	1340.909	-62.515	-283.212	1324.470	-213.911	-298.266	1115.824	-54.009	-388.465	1037.154	32.479	-282.883	952.805	20.453	-283.100	848.471	80.402	-325.117	1322.463	-445.702	-276.830	1318.559	-272.321	-458.165	1320.134	-341.358	-296.003	1145.176	-449.217	-374.590	1010.738	-513.579	-304.162	921.666	-496.704	-317.368	807.808	-533.966	-267.593	887.703	-95.231	-503.106	936.643	-191.071	-506.106	933.850	-243.225	-492.997	949.432	-297.228	-254.683	892.529	-356.055	-282.694	678.333	-22.099	-424.249	641.071	-72.940	-400.121	569.890	-79.921	-330.865	464.893	-46.111	-379.864	357.108	-34.386	-428.204	302.741	-56.616	-434.559	434.920	-104.618	-487.721	381.755	-118.534	-577.877	196.313	-114.484	-636.305	215.375	-184.244	-545.450	77.101	-73.121	-246.926	645.954	-397.772	-224.793	571.057	-367.386	-388.018	608.918	-401.297	-374.554	534.309	-380.495	-312.354	464.196	-378.773	-272.898	370.194	-381.815	-379.562	379.850	-372.547	-393.459	303.129	-375.314	-337.173	72.901	-356.930	-421.854	41.463	-323.157	-235.695	22.987	-370.657
202	1.00500	-328.219	1342.091	-62.470	-277.038	1325.644	-213.873	-292.840	1116.941	-54.003	-383.646	1038.429	32.057	-278.529	953.440	20.841	-280.039	849.128	80.916	-317.992	1323.892	-445.564	-270.496	1319.735	-272.230	-451.629	1321.547	-341.923	-287.762	1147.101	-448.695	-363.221	1011.959	-514.598	-291.413	924.457	-495.956	-301.278	810.368	-533.224	-261.586	889.407	-95.418	-497.063	938.287	-191.416	-500.117	935.459	-243.524	-487.017	950.841	-297.571	-248.664	893.447	-356.241	-274.315	681.055	-22.288	-415.472	641.894	-72.969	-390.387	571.055	-80.111	-319.396	466.521	-46.855	-366.691	357.604	-35.393	-413.952	302.339	-57.686	-423.142	434.553	-105.208	-475.206	380.337	-119.250	-561.607	192.672	-115.714	-620.702	209.622	-185.345	-525.313	74.721	-73.844	-243.638	645.520	-398.412	-222.189	570.416	-368.086	-385.232	610.071	-400.922	-372.513	535.343	-380.251	-310.933	464.507	-378.971	-271.869	370.338	-382.068	-378.603	380.375	-372.632	-392.741	303.700	-375.316	-337.009	72.998	-356.968	-421.796	41.601	-323.177	-235.655	22.886	-370.672
203	1.01000	-322.429	1343.255	-62.417	-270.875	1326.792	-213.818	-287.408	1118.058	-53.959	-378.827	1039.693	31.654	-274.168	954.081	21.252	-276.962	849.809	81.458	-310.899	1325.307	-445.403	-264.170	1320.882	-272.113	-445.099	1322.920	-342.461	-279.579	1149.037	-448.183	-351.896	1013.239	-515.585	-278.729	927.369	-495.177	-285.250	813.142	-532.428	-255.576	891.113	-95.644	-491.016	939.891	-191.684	-494.133	937.007	-243.756	-481.054	952.186	-297.850	-242.646	894.384	-356.438	-265.968	683.751	-22.502	-406.741	642.735	-72.933	-380.735	572.247	-80.245	-308.011	468.131	-47.623	-353.574	358.029	-36.413	-399.679	301.824	-58.746	-411.847	434.013	-105.853	-462.732	378.698	-120.001	-545.141	188.792	-116.892	-604.802	203.574	-186.421	-505.011	72.218	-74.431	-240.342	645.095	-399.012	-219.591	569.788	-368.740	-382.425	611.237	-400.552	-370.447	536.396	-380.004	-309.525	464.841	-379.153	-270.866	370.514	-382.314	-377.658	380.917	-372.682	-392.033	304.295	-375.293	-336.835	73.106	-357.010	-421.734	41.746	-323.193	-235.610	22.789	-370.687
204	1.01500	-316.651	1344.397	-62.355	-264.721	1327.910	-213.747	-281.969	1119.169	-53.878	-374.009	1040.939	31.272	-269.800	954.725	21.688	-273.864	850.508	82.025	-303.837	1326.706	-445.220	-257.850	1321.996	-271.971	-438.575	1324.247	-342.972	-271.448	1150.975	-447.685	-340.619	1014.570	-516.541	-266.116	930.392	-494.374	-269.296	816.121	-531.584	-249.563	892.813	-95.907	-484.965	941.439	-191.881	-488.154	938.482	-243.924	-475.105	953.458	-298.068	-236.628	895.332	-356.649	-257.655	686.408	-22.738	-398.058	643.587	-72.831	-371.169	573.455	-80.323	-296.718	469.716	-48.412	-340.518	358.386	-37.444	-385.392	301.206	-59.790	-400.659	433.294	-106.564	-450.286	376.840	-120.794	-528.476	184.698	-118.012	-588.589	197.264	-187.465	-484.559	69.619	-74.879	-237.039	644.672	-399.572	-216.996	569.169	-369.350	-379.595	612.409	-400.188	-368.353	537.466	-379.757	-308.129	465.193	-379.316	-269.886	370.714	-382.551	-376.724	381.473	-372.695	-391.332	304.910	-375.245	-336.652	73.225	-357.053	-421.668	41.895	-323.204	-235.562	22.698	-370.701
